<svg xmlns="http://www.w3.org/2000/svg" xmlns:xlink="http://www.w3.org/1999/xlink" id="Layer_1" x="0px" y="0px" viewBox="0 0 488.8 72.3" style="enable-background:new 0 0 488.8 72.3;" xml:space="preserve"><path fill="#ffffff" d="M11.6,60.5V11.9c0-0.5,0.4-1,1-1h22.8c2.4,0,4.7,0.5,6.8,1.4c2.1,1,3.9,2.2,5.4,3.8c1.5,1.6,2.7,3.3,3.5,5.2 c0.8,1.9,1.2,3.9,1.2,5.9c0,1.7-0.3,3.4-0.8,5c-0.5,1.6-1.3,3.1-2.3,4.4c-1,1.3-2.2,2.5-3.6,3.5c-1.1,0.7-2.2,1.3-3.4,1.7 c-0.6,0.2-0.9,0.9-0.5,1.4L53.1,60c0.5,0.7,0,1.5-0.8,1.5h-6c-0.3,0-0.6-0.2-0.8-0.4l-11.9-17c-0.2-0.3-0.5-0.4-0.8-0.4H19.9 c-0.5,0-1,0.4-1,1v15.9c0,0.5-0.4,1-1,1h-5.4C12.1,61.5,11.6,61.1,11.6,60.5 M18.9,36.2c0,0.5,0.4,1,1,1h15.5c1.4,0,2.7-0.3,3.8-0.8 c1.2-0.5,2.2-1.2,3-2.2c0.8-0.9,1.5-2,1.9-3.2c0.5-1.2,0.7-2.5,0.7-3.8s-0.3-2.6-0.8-3.8c-0.5-1.2-1.2-2.2-2.2-3.1 c-0.9-0.9-2-1.6-3.2-2.1c-1.2-0.5-2.5-0.8-3.8-0.8H19.9c-0.5,0-1,0.4-1,1V36.2z"></path><path fill="#ffffff" d="M57.7,60.1l21.8-48.7c0.2-0.3,0.5-0.6,0.9-0.6h4.8c0.4,0,0.7,0.2,0.9,0.6l21.8,48.7c0.3,0.6-0.2,1.4-0.9,1.4 h-5.6c-0.4,0-0.7-0.2-0.9-0.6l-5.9-13.1c-0.2-0.3-0.5-0.6-0.9-0.6H72c-0.4,0-0.7,0.2-0.9,0.6l-5.9,13.1c-0.2,0.4-0.5,0.6-0.9,0.6 h-5.7C57.9,61.5,57.5,60.8,57.7,60.1 M82,21.9l-8.3,17.6c-0.3,0.7,0.2,1.4,0.9,1.4H91c0.7,0,1.2-0.7,0.9-1.4l-8.1-17.6 C83.4,21.1,82.3,21.1,82,21.9"></path><path fill="#ffffff" d="M160,49.5c-1,1.7-2.2,3.2-3.6,4.5c-1.4,1.3-3,2.3-4.6,3.1c-1.7,0.8-3.4,1.4-5.2,1.8c-5.2,1.1-9.9,0.6-14.1-1.3 c-2.8-1.3-5.2-3-7.2-5.1c-2-2.1-3.7-4.6-4.8-7.3c-1.2-2.7-1.7-5.6-1.7-8.7c0-2.7,0.5-5.5,1.5-8.2c1-2.7,2.4-5.1,4.4-7.2 c1.9-2.1,4.3-3.9,7.1-5.2c4-1.9,9.1-2.5,14.5-1.5c1.7,0.3,3.3,0.9,4.8,1.6c1.5,0.7,3,1.7,4.3,2.9c1.3,1.2,2.5,2.7,3.5,4.4l0.3,0.5 l2.8-1.2l-0.3-0.6c-1.7-3.2-4.3-5.9-7.6-8c-3.4-2.1-7.6-3.2-12.4-3.2c-4.1,0-7.8,0.8-11,2.3c-3.2,1.5-5.9,3.5-8.1,5.8 c-2.2,2.4-3.9,5.1-5,8.1c-1.2,3-1.7,6.1-1.7,9.1c0,3.2,0.6,6.4,1.9,9.5c1.2,3.1,3,5.9,5.2,8.4c2.2,2.5,4.9,4.5,8,6 c3.1,1.5,6.6,2.3,10.3,2.3c2,0,4.2-0.3,6.3-0.8c2.1-0.5,4.2-1.3,6.1-2.3c1.9-1,3.7-2.3,5.3-3.7c1.6-1.5,2.9-3.2,3.8-5.1L163,50 l-2.8-0.9L160,49.5z"></path><path fill="#ffffff" d="M199,11.3l-23.7,50.8h3.3l8.1-17.2c0.1-0.1,0.2-0.2,0.4-0.2h26.2c0.1,0,0.3,0.1,0.3,0.2l8,17.2h3.3l-23.6-50.8 H199z M188.2,41.2l11.6-24.6c0.1-0.2,0.3-0.2,0.3-0.2c0.1,0,0.3,0,0.4,0.2L212,41.2c0.1,0.2,0,0.3,0,0.4c0,0.1-0.1,0.2-0.3,0.2h-23 c-0.2,0-0.3-0.1-0.3-0.2C188.2,41.5,188.2,41.3,188.2,41.2"></path><path fill="#ffffff" d="M275.5,16.3c-1.4-1.5-3-2.7-4.9-3.6c-1.9-0.9-4.1-1.4-6.3-1.4h-20.7c-0.9,0-1.6,0.7-1.6,1.6v49.2h3V43.2 c0-0.2,0.2-0.4,0.4-0.4h19.5c2.3,0,4.4-0.5,6.2-1.3c1.8-0.9,3.4-2.1,4.8-3.5c1.3-1.5,2.4-3.1,3.1-5c0.7-1.9,1.1-3.8,1.1-5.9 c0-1.9-0.4-3.8-1.2-5.7C277.9,19.4,276.8,17.7,275.5,16.3 M244.9,14.7c0-0.2,0.2-0.4,0.4-0.4h18.9c1.7,0,3.4,0.4,4.9,1 c1.5,0.7,2.9,1.7,4,2.9c1.1,1.2,2.1,2.6,2.7,4.1c0.7,1.5,1,3.1,1,4.7c0,1.6-0.3,3.1-0.8,4.7c-0.6,1.5-1.4,2.9-2.4,4.1 c-1,1.2-2.3,2.2-3.8,2.9c-1.5,0.7-3.2,1.1-5.1,1.1h-19.5c-0.2,0-0.4-0.2-0.4-0.4V14.7z"></path><rect x="297.9" y="11.4" fill="#ffffff" width="3" height="50.7"></rect><path fill="#ffffff" d="M318.3,14.3h20c0.2,0,0.4,0.2,0.4,0.4v47.4h3V14.7c0-0.2,0.2-0.4,0.4-0.4h19.9v-3h-43.6V14.3z"></path><path fill="#ffffff" d="M396.7,11.3L373,62.1h3.3l8.1-17.2c0.1-0.1,0.2-0.2,0.4-0.2h26.2c0.1,0,0.3,0.1,0.3,0.2l8.1,17.2h3.3 l-23.6-50.8H396.7z M386,41.2l11.6-24.6c0.1-0.2,0.3-0.2,0.4-0.2c0.1,0,0.3,0,0.3,0.2l11.5,24.6c0.1,0.2,0,0.3,0,0.4 c0,0.1-0.1,0.2-0.3,0.2h-23c-0.2,0-0.3-0.1-0.3-0.2C386,41.5,386,41.3,386,41.2"></path><path fill="#ffffff" d="M443.1,59.2c-0.2,0-0.4-0.2-0.4-0.4V11.3h-3v49.2c0,0.9,0.7,1.6,1.6,1.6h34.7v-2.9H443.1z"></path></svg>