<svg xmlns="http://www.w3.org/2000/svg" id="Layer_1" data-name="Layer 1" width="660.38" height="139.34" viewBox="0 0 660.38 139.34"><title>tdk-white-logo</title><polygon points="50.89 59.77 79.8 30.33 109.3 59.71 50.89 59.77 50.89 59.77" fill="#fff"></polygon><polygon points="0 89.25 50.56 59.38 50.56 0.88 0 89.25 0 89.25" fill="#fff"></polygon><polygon points="79.88 109.81 109.05 59.41 119.71 99.23 79.88 109.81 79.88 109.81" fill="#fff"></polygon><polygon points="39.79 99.34 50.56 59.46 79.88 109.87 39.79 99.34 39.79 99.34" fill="#fff"></polygon><polygon points="0 89.23 39.79 99.34 29.02 139.33 0 89.23 0 89.23" fill="#fff"></polygon><polygon points="29.02 139.33 79.88 109.81 130.86 139.34 29.02 139.33 29.02 139.33" fill="#fff"></polygon><polygon points="119.71 99.23 159.38 88.13 130.86 139.34 119.71 99.23 119.71 99.23" fill="#fff"></polygon><polygon points="109.05 0.85 159.38 88.13 109.05 59.41 109.05 0.85 109.05 0.85" fill="#fff"></polygon><polygon points="50.56 0.88 109.05 0.88 79.8 30.11 50.56 0.88 50.56 0.88" fill="#fff"></polygon><polygon points="155.31 0.67 317.44 0.67 317.34 29.89 255.14 29.89 255.01 138.46 218.08 138.46 218.08 29.96 155.32 29.96 155.31 0.67 155.31 0.67" fill="#fff"></polygon><polygon points="497.78 0.67 534.2 0.69 534.23 138.65 497.7 138.65 497.78 0.67 497.78 0.67" fill="#fff"></polygon><path d="M537.82,67,609.5.65l49.68,0s-72.33,63.38-73.65,64.59a14.2,14.2,0,0,1-2.09,1.54,10,10,0,0,1,2.42,1.87c.66.88,76.83,69.78,76.83,69.78H610.37L537.82,67Z" transform="translate(-2.31 -0.65)" fill="#fff"></path><path d="M418,1.32l-89.14,0-.21,137.81h90.44c37.37,0,72.92-25.5,72.55-68.57C491.33,31.42,462.89,1.32,418,1.32ZM416.91,110.1c-27.25,0-52.76,0-52.76,0V29.66s18.48,0,50.56,0c33.65,0,42.71,20.41,42.65,40.31-.07,22.68-11.29,40.08-40.45,40.13Z" transform="translate(-2.31 -0.65)" fill="#fff"></path></svg>