<svg xmlns="http://www.w3.org/2000/svg" xmlns:xlink="http://www.w3.org/1999/xlink" width="319px" height="113px" viewBox="0 0 319 113"><title>Polytec-logo</title><g id="Angepasste-Screens" stroke="none" stroke-width="1" fill="none" fill-rule="evenodd"><g id="01-Home" transform="translate(-1281.000000, 3.000000)"><g id="menu-Desktop" transform="translate(130.000000, -2.285714)"><g id="Polytec-logo" transform="translate(1151.000000, 0.000000)"><polygon id="Fill-1" fill="#FEBF00" points="0 112 319 112 319 0 0 0"></polygon><path d="M190.617289,74.5269526 C190.617289,75.2051176 190.053396,75.7747001 189.365486,75.7747001 L184.823339,75.77851 L184.823339,80.9847603 C184.823339,80.9847603 187.557541,81.0190496 192.002799,80.9847603 C196.64571,80.9485661 196.94219,76.1537867 196.94219,76.1537867 L200,44.0038099 L192.712025,44.0057149 L191.845839,67.8976986 C191.845839,68.2672605 191.506728,68.5682438 191.1308,68.5682438 C190.752934,68.5682438 190.446765,68.2710704 190.446765,67.9015085 L189.132953,44.001905 L182,44 L184.687695,71.5628379 C184.862095,72.5762755 186.018947,73.420172 187.096351,73.4944653 L190.621165,73.4944653 L190.617289,74.5269526 Z" id="Fill-3" fill="#000000"></path><path d="M211.521481,67.1564887 C211.521481,67.8449872 212.100463,68.4232485 212.802379,68.4232485 L214,68.4271165 L214,73.9853877 C214,73.9853877 213.462657,74.0182654 208.920026,73.9853877 C204.163252,73.950576 204.200925,68.9783021 204.200925,68.9783021 L204.147389,48.5863705 L202,48.5650967 L202,43.1828181 L204.139458,43.1828181 L204.139458,36.005802 L211.501652,36 L211.501652,43.1557423 L213.68275,43.1828181 L213.68275,48.5844365 L211.594845,48.5844365 L211.521481,67.1564887 Z" id="Fill-5" fill="#000000"></path><path d="M131,37.0133416 L142.953742,37 C145.741632,37 148,39.1803946 148,41.867769 L148,56.9647144 C148,59.6539947 145.741632,61.8324834 142.953742,61.8324834 L138.500232,61.8324834 L138.500232,74 L131,74 L131,37.0133416 Z M138.438982,43.0208623 L139.843794,43.0208623 C140.665737,43.0208623 141.33159,43.5049709 141.33159,44.1015299 L141.33159,54.6185031 C141.33159,55.216968 140.665737,55.6991707 139.843794,55.6991707 L138.438982,55.6991707 L138.438982,43.0208623 Z" id="Fill-7" fill="#000000"></path><path d="M151,47.4191158 C151,44.977895 152.94636,43 155.348659,43 L162.651341,43 C165.05364,43 167,44.977895 167,47.4191158 L167,69.5808842 C167,72.0201583 165.05364,74 162.651341,74 L155.348659,74 C152.94636,74 151,72.0201583 151,69.5808842 L151,47.4191158 Z M157.626437,49.4554132 C157.626437,48.8460814 158.247126,48.3516076 159.01341,48.3516076 C159.781609,48.3516076 160.404215,48.8460814 160.404215,49.4554132 L160.404215,67.5329063 C160.404215,68.1422381 159.781609,68.6367119 159.01341,68.6367119 C158.247126,68.6367119 157.626437,68.1422381 157.626437,67.5329063 L157.626437,49.4554132 Z" id="Fill-9" fill="#000000"></path><path d="M246.523218,60.2490424 L246.540408,67.3659027 C246.540408,67.9751962 245.891011,68.4696389 245.254984,68.4696389 C244.620867,68.4696389 243.96956,67.9751962 243.96956,67.3659027 L243.96956,49.4550078 C243.96956,48.8457143 244.620867,48.3512716 245.254984,48.3512716 C245.891011,48.3512716 246.540408,48.8457143 246.540408,49.4550078 L246.540408,55.2345369 L252.95989,55.2209105 L252.95034,47.4188383 C252.95034,44.9777708 251.009789,43 248.616569,43 L241.333771,43 C238.936732,43 237,44.9777708 237,47.4188383 L237,69.5772684 C237,72.0202826 238.936732,74 241.333771,74 L248.616569,74 C251.009789,74 252.95034,72.0202826 252.95034,69.5772684 L253,60.2568289 L246.523218,60.2490424 Z" id="Fill-11" fill="#000000"></path><path d="M67,53.9990419 C67,40.744381 77.7439521,30 90.9980838,30 C104.252216,30 115,40.744381 115,53.9990419 C115,67.255619 104.252216,78 90.9980838,78 C77.7439521,78 67,67.255619 67,53.9990419" id="Fill-13" fill="#FFFFFF"></path><path d="M96.1176471,56.095413 C93.9673913,56.095413 92.3350384,57.3083955 92.3350384,57.3083955 C91.6502558,57.8372789 90.9079284,58.4523933 90.1982097,59.1633199 C86.3638107,62.9919757 85.351023,66.832129 85.351023,66.832129 C85.351023,66.832129 84.3152174,62.9517346 80.4693095,59.1077488 C76.6445013,55.2886742 72.8081841,54.3056409 72.8081841,54.3056409 C72.8081841,54.3056409 76.3721228,53.6023793 80.5287724,49.4498782 C84.3574169,45.6250549 85.387468,41.7369955 85.387468,41.7369955 C85.387468,41.7369955 86.2928389,45.6480498 90.0639386,49.4153858 C90.8177749,50.170386 91.5792839,50.8142441 92.3081841,51.3642062 C92.3081841,51.3642062 93.9673913,52.5369476 96.1579284,52.5369476 L115,52.5369476 C114.223146,39.9817158 103.788363,30 91.0268542,30 C77.7589514,30 67,40.744381 67,53.9990419 C67,67.255619 77.7589514,78 91.0268542,78 C103.596547,78 113.941176,68.3842868 114.992327,56.095413 L96.1176471,56.095413 Z" id="Fill-15" fill="#000000"></path><path d="M232.969407,58.2848709 L232.969407,47.4193933 C232.969407,44.9780192 231.024857,43 228.629063,43 L221.340344,43 C218.940727,43 217,44.9780192 217,47.4193933 L217,69.5825535 C217,72.0219808 218.940727,74 221.340344,74 L228.629063,74 C231.024857,74 232.969407,72.0219808 232.969407,69.5825535 L233,62.2253344 L226.388145,62.2253344 L226.424474,67.3086102 C226.424474,67.9179803 225.768642,68.4124851 225.133843,68.4124851 C224.499044,68.4124851 223.847036,67.9179803 223.847036,67.3086102 L223.847036,59.1492809 L232.063098,59.1492809 C232.531549,59.1492809 232.969407,58.7599071 232.969407,58.2848709 L232.969407,58.2848709 Z M223.829828,54.1828173 L223.829828,49.5142247 C223.829828,48.9048546 224.455067,48.4122967 225.216061,48.4122967 C225.982792,48.4122967 226.604207,48.9048546 226.604207,49.5142247 L226.611855,54.1672424 L223.829828,54.1828173 Z" id="Fill-17" fill="#000000"></path><polygon id="Fill-2" fill="#000000" points="171 75 178 75 178 36 171 36"></polygon></g></g></g></g></svg>